<svg width="20" height="20" viewBox="0 0 20 20" fill="none" xmlns="http://www.w3.org/2000/svg">
<path d="M17 5.5C17 4.83696 16.7366 4.20107 16.2678 3.73223C15.7989 3.26339 15.163 3 14.5 3H5.5C4.83696 3 4.20107 3.26339 3.73223 3.73223C3.26339 4.20107 3 4.83696 3 5.5V14.5C3 15.163 3.26339 15.7989 3.73223 16.2678C4.20107 16.7366 4.83696 17 5.5 17H9.6C9.44 16.68 9.3 16.35 9.2 16H5.5C5.10218 16 4.72064 15.842 4.43934 15.5607C4.15804 15.2794 4 14.8978 4 14.5V7H16V9.2C16.35 9.3 16.68 9.44 17 9.6V5.5ZM5.5 4H14.5C15.33 4 16 4.67 16 5.5V6H4V5.5C4 4.67 4.67 4 5.5 4ZM19 14.5C19 15.6935 18.5259 16.8381 17.682 17.682C16.8381 18.5259 15.6935 19 14.5 19C13.3065 19 12.1619 18.5259 11.318 17.682C10.4741 16.8381 10 15.6935 10 14.5C10 13.3065 10.4741 12.1619 11.318 11.318C12.1619 10.4741 13.3065 10 14.5 10C15.6935 10 16.8381 10.4741 17.682 11.318C18.5259 12.1619 19 13.3065 19 14.5V14.5ZM16.85 14.85C16.9442 14.7577 16.9981 14.6319 17 14.5C16.9981 14.3681 16.9442 14.2423 16.85 14.15L14.85 12.15C14.7537 12.0778 14.6346 12.0427 14.5146 12.0513C14.3945 12.0598 14.2816 12.1113 14.1964 12.1964C14.1113 12.2816 14.0598 12.3945 14.0513 12.5146C14.0427 12.6346 14.0778 12.7537 14.15 12.85L15.29 14H12.5C12.3674 14 12.2402 14.0527 12.1464 14.1464C12.0527 14.2402 12 14.3674 12 14.5C12 14.6326 12.0527 14.7598 12.1464 14.8536C12.2402 14.9473 12.3674 15 12.5 15H15.3L14.15 16.15C14.0778 16.2463 14.0427 16.3654 14.0513 16.4854C14.0598 16.6055 14.1113 16.7184 14.1964 16.8036C14.2816 16.8887 14.3945 16.9402 14.5146 16.9487C14.6346 16.9573 14.7537 16.9222 14.85 16.85L16.85 14.85V14.85Z" fill="black"/>
</svg>
