<svg width="20" height="20" viewBox="0 0 20 20" fill="none" xmlns="http://www.w3.org/2000/svg">
<path d="M16.5 6.66999C16.6082 6.66999 16.7135 6.70508 16.8 6.76999L16.88 6.83999L16.89 6.85999C17.4722 7.57967 17.8432 8.44684 17.9616 9.36491C18.0801 10.283 17.9414 11.2159 17.5609 12.0598C17.1804 12.9037 16.5732 13.6254 15.8067 14.1445C15.0403 14.6636 14.1448 14.9598 13.22 15H13H6.7L8.35 16.65C8.53 16.82 8.55 17.09 8.41 17.28L8.35 17.35C8.26803 17.4311 8.16052 17.4814 8.0457 17.4923C7.93089 17.5033 7.81582 17.4742 7.72 17.41L7.65 17.35L5.15 14.85C5.06888 14.768 5.01858 14.6605 5.00765 14.5457C4.99671 14.4309 5.02581 14.3158 5.09 14.22L5.15 14.15L7.65 11.65C7.73943 11.5718 7.85376 11.5281 7.97252 11.5265C8.09127 11.525 8.20671 11.5657 8.29814 11.6415C8.38958 11.7173 8.45105 11.8232 8.47155 11.9402C8.49204 12.0572 8.47023 12.1776 8.41 12.28L8.35 12.35L6.72 14H6.86H7H13C13.7561 14.0007 14.4969 13.7871 15.1365 13.3839C15.7762 12.9807 16.2884 12.4045 16.6139 11.7221C16.9395 11.0397 17.0649 10.2789 16.9757 9.52814C16.8865 8.77733 16.5863 8.06717 16.11 7.47999C16.0519 7.40645 16.0156 7.31805 16.0053 7.22489C15.995 7.13172 16.0111 7.03753 16.0518 6.95308C16.0925 6.86863 16.156 6.7973 16.2353 6.74725C16.3145 6.69719 16.4063 6.67042 16.5 6.66999V6.66999ZM11.65 2.64999C11.732 2.56887 11.8395 2.51857 11.9543 2.50764C12.0691 2.4967 12.1842 2.5258 12.28 2.58999L12.35 2.64999L14.85 5.14999L14.91 5.21999C14.9659 5.30268 14.9958 5.40019 14.9958 5.49999C14.9958 5.59979 14.9659 5.69731 14.91 5.77999L14.85 5.84999L12.35 8.34999L12.28 8.40999C12.1973 8.46588 12.0998 8.49575 12 8.49575C11.9002 8.49575 11.8027 8.46588 11.72 8.40999L11.65 8.34999L11.59 8.27999C11.5341 8.19731 11.5043 8.09979 11.5043 7.99999C11.5043 7.90019 11.5341 7.80268 11.59 7.71999L11.65 7.64999L13.28 5.99999H13.14H13H7C6.24476 6.0012 5.5053 6.21619 4.86714 6.6201C4.22898 7.02401 3.71821 7.60034 3.39392 8.28241C3.06962 8.96448 2.94504 9.72442 3.03461 10.4743C3.12417 11.2242 3.4242 11.9335 3.9 12.52C3.96 12.61 4 12.72 4 12.83C4 12.9349 3.96699 13.0372 3.90563 13.1223C3.84427 13.2075 3.75767 13.2712 3.65812 13.3043C3.55856 13.3375 3.45109 13.3385 3.35092 13.3073C3.25075 13.276 3.16297 13.2139 3.1 13.13C2.51685 12.4113 2.14505 11.5447 2.02616 10.6269C1.90726 9.70904 2.04595 8.77624 2.42673 7.93272C2.80751 7.0892 3.41537 6.36819 4.18237 5.85028C4.94938 5.33238 5.8453 5.03798 6.77 4.99999H13.29L11.64 3.34999L11.58 3.27999C11.5158 3.18417 11.4867 3.06911 11.4977 2.95429C11.5086 2.83948 11.5589 2.73197 11.64 2.64999H11.65Z" fill="black"/>
</svg>
