<svg width="20" height="20" viewBox="0 0 20 20" fill="none" xmlns="http://www.w3.org/2000/svg">
<path d="M9.99999 2C11.488 1.97826 12.9296 2.51774 14.0378 3.51102C15.1459 4.50429 15.8394 5.8785 15.98 7.36L16 7.58V11.4L16.92 13.62C16.9451 13.6747 16.9652 13.7316 16.98 13.79L16.99 13.87L17 14C17.0004 14.222 16.9269 14.4378 16.7911 14.6134C16.6553 14.7891 16.4649 14.9145 16.25 14.97L16.14 14.99L16 15H12.5V15.17C12.5 15.833 12.2366 16.4689 11.7678 16.9378C11.2989 17.4066 10.663 17.67 9.99999 17.67C9.33695 17.67 8.70107 17.4066 8.23222 16.9378C7.76338 16.4689 7.49999 15.833 7.49999 15.17V15H3.99999C3.91239 15.0014 3.82497 14.9914 3.73999 14.97L3.60999 14.93C3.40905 14.8445 3.24163 14.6956 3.13328 14.506C3.02494 14.3164 2.98164 14.0965 3.00999 13.88L3.02999 13.75L3.07999 13.62L3.99999 11.4V7.57C4.08512 6.04568 4.75782 4.6137 5.8767 3.575C6.99559 2.5363 8.47355 1.97175 9.99999 2V2ZM11.5 15H8.49999V15.15C8.5358 15.4965 8.69111 15.8198 8.93927 16.0643C9.18743 16.3088 9.51296 16.4593 9.85999 16.49L9.99999 16.5C10.78 16.5 11.42 15.9 11.5 15.14V15ZM9.99999 3C8.77201 2.97305 7.57868 3.40826 6.65637 4.21945C5.73406 5.03064 5.15004 6.15863 5.01999 7.38L4.99999 7.6V11.5L4.95999 11.7L3.99999 14H16L15.04 11.7L15 11.5V7.61C14.9252 6.34388 14.3625 5.15607 13.43 4.29633C12.4975 3.43659 11.268 2.97192 9.99999 3V3Z" fill="black"/>
</svg>
