<svg width="20" height="20" viewBox="0 0 20 20" fill="none" xmlns="http://www.w3.org/2000/svg">
<path d="M9 2.39001C9.27501 2.14403 9.63103 2.00804 10 2.00804C10.369 2.00804 10.725 2.14403 11 2.39001L16.5 7.33001C16.82 7.61001 17 8.02001 17 8.45001V15.5C17 16.33 16.33 17 15.5 17H13C12.6022 17 12.2206 16.842 11.9393 16.5607C11.658 16.2794 11.5 15.8978 11.5 15.5V12C11.5 11.8674 11.4473 11.7402 11.3536 11.6465C11.2598 11.5527 11.1326 11.5 11 11.5H9C8.86739 11.5 8.74021 11.5527 8.64645 11.6465C8.55268 11.7402 8.5 11.8674 8.5 12V15.5C8.5 16.33 7.83 17 7 17H4.5C4.10218 17 3.72064 16.842 3.43934 16.5607C3.15804 16.2794 3 15.8978 3 15.5V8.45001C3 8.02001 3.18 7.61001 3.5 7.33001L9 2.39001ZM10.33 3.13001C10.2388 3.04985 10.1215 3.00564 10 3.00564C9.87855 3.00564 9.76124 3.04985 9.67 3.13001L4.17 8.07001C4.11603 8.11742 4.07291 8.1759 4.04357 8.24147C4.01424 8.30705 3.99937 8.37817 4 8.45001V15.5C4 15.78 4.22 16 4.5 16H7C7.13261 16 7.25979 15.9473 7.35355 15.8536C7.44732 15.7598 7.5 15.6326 7.5 15.5V12C7.5 11.17 8.17 10.5 9 10.5H11C11.83 10.5 12.5 11.17 12.5 12V15.5C12.5 15.78 12.72 16 13 16H15.5C15.6326 16 15.7598 15.9473 15.8536 15.8536C15.9473 15.7598 16 15.6326 16 15.5V8.45001C16.0006 8.37817 15.9858 8.30705 15.9564 8.24147C15.9271 8.1759 15.884 8.11742 15.83 8.07001L10.33 3.13001V3.13001Z" fill="black"/>
</svg>
