<svg width="20" height="20" viewBox="0 0 20 20" fill="none" xmlns="http://www.w3.org/2000/svg">
<path d="M16 4.5C16 3.83696 15.7366 3.20107 15.2678 2.73223C14.7989 2.26339 14.163 2 13.5 2H4.5C3.83696 2 3.20107 2.26339 2.73223 2.73223C2.26339 3.20107 2 3.83696 2 4.5V13.5C2 14.163 2.26339 14.7989 2.73223 15.2678C3.20107 15.7366 3.83696 16 4.5 16H13.5C14.163 16 14.7989 15.7366 15.2678 15.2678C15.7366 14.7989 16 14.163 16 13.5V4.5ZM3 6H15V13.5C15 14.33 14.33 15 13.5 15H4.5C4.10218 15 3.72064 14.842 3.43934 14.5607C3.15804 14.2794 3 13.8978 3 13.5V6ZM4.5 3H13.5C14.33 3 15 3.67 15 4.5V5H3V4.5C3 3.67 3.67 3 4.5 3ZM5 17C5.46 17.6 6.18 18 7 18H13.5C14.6935 18 15.8381 17.5259 16.682 16.682C17.5259 15.8381 18 14.6935 18 13.5V6.5C18 5.68 17.6 4.96 17 4.5V13.5C17 14.4283 16.6313 15.3185 15.9749 15.9749C15.3185 16.6313 14.4283 17 13.5 17H5Z" fill="black"/>
</svg>
