<svg width="20" height="20" viewBox="0 0 20 20" fill="none" xmlns="http://www.w3.org/2000/svg">
<path d="M14.5 3C15.163 3 15.7989 3.26339 16.2678 3.73223C16.7366 4.20107 17 4.83696 17 5.5V14.5C17 15.163 16.7366 15.7989 16.2678 16.2678C15.7989 16.7366 15.163 17 14.5 17H5.5C4.83696 17 4.20107 16.7366 3.73223 16.2678C3.26339 15.7989 3 15.163 3 14.5V5.5C3 4.83696 3.26339 4.20107 3.73223 3.73223C4.20107 3.26339 4.83696 3 5.5 3H14.5ZM14.5 4H5.5C4.67 4 4 4.67 4 5.5V14.5C4 15.33 4.67 16 5.5 16H14.5C15.33 16 16 15.33 16 14.5V5.5C16 4.67 15.33 4 14.5 4ZM12.72 9C13.16 9 13.32 9.05 13.49 9.13C13.65 9.23 13.78 9.35 13.87 9.51C13.95 9.67 14 9.84 14 10.28V12.72C14 13.16 13.95 13.32 13.87 13.49C13.785 13.6524 13.6524 13.785 13.49 13.87C13.33 13.95 13.16 14 12.72 14H7.28C6.84 14 6.68 13.95 6.51 13.87C6.34759 13.785 6.21501 13.6524 6.13 13.49C6.05 13.33 6 13.16 6 12.72V10.28C6 9.84 6.05 9.68 6.13 9.51C6.21501 9.34759 6.34759 9.21501 6.51 9.13C6.67 9.05 6.84 9 7.28 9H12.72V9ZM12.92 10H7V13H12.98V10.02H12.9L12.92 10ZM13.5 6C13.5657 5.99409 13.6318 6.00117 13.6948 6.02084C13.7577 6.04051 13.8161 6.07238 13.8667 6.11463C13.9173 6.15688 13.9591 6.20868 13.9897 6.26708C14.0203 6.32548 14.0391 6.38934 14.045 6.455C14.0509 6.52066 14.0438 6.58684 14.0242 6.64977C14.0045 6.71269 13.9726 6.77113 13.9304 6.82173C13.8881 6.87234 13.8363 6.91413 13.7779 6.94472C13.7195 6.97531 13.6557 6.99409 13.59 7H6.5C6.36739 7.01193 6.23547 6.9707 6.13327 6.88537C6.03106 6.80004 5.96693 6.67761 5.955 6.545C5.94307 6.41239 5.9843 6.28047 6.06963 6.17827C6.15496 6.07606 6.27739 6.01193 6.41 6H13.5Z" fill="black"/>
</svg>
