<svg width="20" height="20" viewBox="0 0 20 20" fill="none" xmlns="http://www.w3.org/2000/svg">
<path d="M15.5 16.5L14.5009 16.4584L14.5 16.4792V16.5H15.5ZM15.9566 5.54163L14.9575 5.5L14.9575 5.5L15.9566 5.54163ZM4.5 16.5H5.5V16.4792L5.49913 16.4584L4.5 16.5ZM4.0434 5.54163L3.04427 5.58326L4.0434 5.54163ZM2 3.5C1.44772 3.5 1 3.94772 1 4.5C1 5.05229 1.44772 5.5 2 5.5V3.5ZM18 5.5C18.5523 5.5 19 5.05229 19 4.5C19 3.94772 18.5523 3.5 18 3.5V5.5ZM7 0.5C6.44771 0.5 6 0.947715 6 1.5C6 2.05228 6.44771 2.5 7 2.5V0.5ZM13 2.5C13.5523 2.5 14 2.05228 14 1.5C14 0.947715 13.5523 0.5 13 0.5V2.5ZM7 14.5C7 15.0523 7.44771 15.5 8 15.5C8.55228 15.5 9 15.0523 9 14.5H7ZM9 8.5C9 7.94772 8.55228 7.5 8 7.5C7.44771 7.5 7 7.94772 7 8.5H9ZM11 14.5C11 15.0523 11.4477 15.5 12 15.5C12.5523 15.5 13 15.0523 13 14.5H11ZM13 8.5C13 7.94772 12.5523 7.5 12 7.5C11.4477 7.5 11 7.94772 11 8.5H13ZM13.5 17.5H6.5V19.5H13.5V17.5ZM14.5 16.5C14.5 17.0523 14.0523 17.5 13.5 17.5V19.5C15.1569 19.5 16.5 18.1569 16.5 16.5H14.5ZM14.9575 5.5L14.5009 16.4584L16.4991 16.5416L16.9557 5.58326L14.9575 5.5ZM5.49913 16.4584L5.04253 5.5L3.04427 5.58326L3.50087 16.5416L5.49913 16.4584ZM6.5 17.5C5.94772 17.5 5.5 17.0523 5.5 16.5H3.5C3.5 18.1569 4.84315 19.5 6.5 19.5V17.5ZM14.9575 3.5H5.04253V5.5H14.9575V3.5ZM5.04253 5.5L5.04253 5.5V3.5C3.9053 3.5 2.99692 4.44701 3.04427 5.58326L5.04253 5.5ZM16.9557 5.58326C17.0031 4.44701 16.0947 3.5 14.9575 3.5V5.5L14.9575 5.5L16.9557 5.58326ZM2 5.5H18V3.5H2V5.5ZM7 2.5H13V0.5H7V2.5ZM9 14.5V8.5H7V14.5H9ZM13 14.5V8.5H11V14.5H13Z" stroke-width="1" fill="#FF0000"/>
</svg>
