<svg width="24" height="24" viewBox="0 0 24 24" fill="none" xmlns="http://www.w3.org/2000/svg">
  <path d="M11.495 2.7139C11.7016 2.29536 12.2984 2.29536 12.505 2.7139L15.179 8.13203C15.261 8.29823 15.4196 8.41343 15.603 8.44008L21.5822 9.30892C22.0441 9.37604 22.2286 9.94366 21.8943 10.2695L17.5677 14.4869C17.435 14.6162 17.3744 14.8026 17.4058 14.9853L18.4271 20.9404C18.506 21.4004 18.0232 21.7513 17.6101 21.5341L12.262 18.7224C12.098 18.6362 11.902 18.6362 11.7379 18.7224L6.38994 21.5341C5.97681 21.7513 5.49396 21.4004 5.57286 20.9404L6.59424 14.9853C6.62557 14.8026 6.56501 14.6162 6.43229 14.4869L2.10566 10.2695C1.77143 9.94366 1.95586 9.37604 2.41775 9.30892L8.39701 8.44008C8.58043 8.41343 8.73898 8.29823 8.82101 8.13203L11.495 2.7139Z" stroke="#0000FF" stroke-width="1" stroke-linejoin="round"/>
</svg>
