<svg width="20" height="20" viewBox="0 0 20 20" fill="none" xmlns="http://www.w3.org/2000/svg">
<path d="M9.10001 2.9C9.1819 2.73093 9.30975 2.58834 9.46892 2.48858C9.6281 2.38881 9.81215 2.33589 10 2.33589C10.1879 2.33589 10.3719 2.38881 10.5311 2.48858C10.6903 2.58834 10.8181 2.73093 10.9 2.9L12.83 6.81L17.14 7.44C17.324 7.46674 17.4969 7.54422 17.6392 7.66376C17.7816 7.7833 17.8878 7.94016 17.946 8.11673C18.0042 8.2933 18.012 8.48259 17.9685 8.66335C17.9251 8.8441 17.8321 9.00916 17.7 9.14L14.58 12.19L15.31 16.49C15.3405 16.6735 15.3192 16.8618 15.2486 17.0338C15.1779 17.2059 15.0607 17.3548 14.91 17.4639C14.7594 17.5729 14.5814 17.6378 14.3959 17.6513C14.2104 17.6648 14.0248 17.6262 13.86 17.54L10 15.51L6.14001 17.54C5.97522 17.6262 5.78965 17.6648 5.60416 17.6513C5.41867 17.6378 5.24061 17.5729 5.08997 17.4639C4.93934 17.3548 4.82211 17.2059 4.75146 17.0338C4.68081 16.8618 4.65953 16.6735 4.69001 16.49L5.43001 12.19L2.30001 9.14C2.16795 9.00916 2.07497 8.8441 2.03152 8.66335C1.98806 8.48259 1.99586 8.2933 2.05402 8.11673C2.11218 7.94016 2.21842 7.7833 2.36079 7.66376C2.50316 7.54422 2.67604 7.46674 2.86001 7.44L7.17001 6.81L9.10001 2.9ZM10 3.34L8.07001 7.25C7.9989 7.39557 7.89349 7.52169 7.76284 7.6175C7.63219 7.71331 7.48023 7.77594 7.32001 7.8L3.00001 8.43L6.12001 11.47C6.23907 11.5824 6.32869 11.7224 6.381 11.8776C6.43331 12.0328 6.4467 12.1984 6.42001 12.36L5.67001 16.66L9.54001 14.63C9.68343 14.5547 9.84301 14.5153 10.005 14.5153C10.167 14.5153 10.3266 14.5547 10.47 14.63L14.33 16.66L13.59 12.36C13.5621 12.1993 13.5739 12.0341 13.6244 11.879C13.675 11.7238 13.7627 11.5834 13.88 11.47L17 8.43L12.68 7.8C12.5198 7.77594 12.3678 7.71331 12.2372 7.6175C12.1065 7.52169 12.0011 7.39557 11.93 7.25L10 3.35V3.34Z" fill="black"/>
</svg>
