<svg width="20" height="20" viewBox="0 0 20 20" fill="none" xmlns="http://www.w3.org/2000/svg">
<path d="M6.5 6C6.36739 6 6.24021 6.05268 6.14645 6.14645C6.05268 6.24021 6 6.36739 6 6.5V9.5C6 9.78 6.22 10 6.5 10H13.5C13.6326 10 13.7598 9.94732 13.8536 9.85355C13.9473 9.75979 14 9.63261 14 9.5V6.5C14 6.36739 13.9473 6.24021 13.8536 6.14645C13.7598 6.05268 13.6326 6 13.5 6H6.5ZM7 9V7H13V9H7ZM17 5.5C17 4.83696 16.7366 4.20107 16.2678 3.73223C15.7989 3.26339 15.163 3 14.5 3H5.5C4.83696 3 4.20107 3.26339 3.73223 3.73223C3.26339 4.20107 3 4.83696 3 5.5V14.5C3 15.163 3.26339 15.7989 3.73223 16.2678C4.20107 16.7366 4.83696 17 5.5 17H14.5C15.163 17 15.7989 16.7366 16.2678 16.2678C16.7366 15.7989 17 15.163 17 14.5V5.5ZM5.5 4H14.5C15.33 4 16 4.67 16 5.5V14.5C16 15.33 15.33 16 14.5 16H5.5C5.10218 16 4.72064 15.842 4.43934 15.5607C4.15804 15.2794 4 14.8978 4 14.5V5.5C4 4.67 4.67 4 5.5 4Z" fill="black"/>
</svg>
