<svg width="20" height="20" viewBox="0 0 20 20" fill="none" xmlns="http://www.w3.org/2000/svg">
<path d="M14.5 3C15.163 3 15.7989 3.26339 16.2678 3.73223C16.7366 4.20107 17 4.83696 17 5.5V14.5C17 15.163 16.7366 15.7989 16.2678 16.2678C15.7989 16.7366 15.163 17 14.5 17H11.5V16H14.5C15.33 16 16 15.33 16 14.5V7H4V14.5C4 15.33 4.67 16 5.5 16H8.5V17H5.5C4.83696 17 4.20107 16.7366 3.73223 16.2678C3.26339 15.7989 3 15.163 3 14.5V5.5C3 4.83696 3.26339 4.20107 3.73223 3.73223C4.20107 3.26339 4.83696 3 5.5 3H14.5ZM14.5 4H5.5C4.67 4 4 4.67 4 5.5V6H16V5.5C16 4.67 15.33 4 14.5 4ZM11 9C11 9.26522 10.8946 9.51957 10.7071 9.70711C10.5196 9.89464 10.2652 10 10 10C9.73478 10 9.48043 9.89464 9.29289 9.70711C9.10536 9.51957 9 9.26522 9 9C9 8.73478 9.10536 8.48043 9.29289 8.29289C9.48043 8.10536 9.73478 8 10 8C10.2652 8 10.5196 8.10536 10.7071 8.29289C10.8946 8.48043 11 8.73478 11 9V9ZM11.88 14.07C11.7947 14.17 11.6733 14.2324 11.5423 14.2437C11.4113 14.2549 11.2811 14.2141 11.18 14.13L10.5 13.57V17.5C10.5 17.6326 10.4473 17.7598 10.3536 17.8536C10.2598 17.9473 10.1326 18 10 18C9.86739 18 9.74021 17.9473 9.64645 17.8536C9.55268 17.7598 9.5 17.6326 9.5 17.5V13.57L8.82 14.13C8.71771 14.198 8.59399 14.2259 8.47241 14.2085C8.35084 14.1911 8.23992 14.1296 8.16081 14.0356C8.08171 13.9417 8.03994 13.8219 8.04348 13.6992C8.04702 13.5764 8.09561 13.4592 8.18 13.37L9.68 12.12C9.76984 12.0452 9.88307 12.0042 10 12.0042C10.1169 12.0042 10.2302 12.0452 10.32 12.12L11.82 13.37C12.03 13.54 12.06 13.86 11.88 14.07V14.07Z" fill="black"/>
</svg>
