<svg width="20" height="20" viewBox="0 0 20 20" fill="none" xmlns="http://www.w3.org/2000/svg">
<path d="M10 2C12.1217 2 14.1566 2.84285 15.6569 4.34315C17.1571 5.84344 18 7.87827 18 10C18 12.1217 17.1571 14.1566 15.6569 15.6569C14.1566 17.1571 12.1217 18 10 18C7.87827 18 5.84344 17.1571 4.34315 15.6569C2.84285 14.1566 2 12.1217 2 10C2 7.87827 2.84285 5.84344 4.34315 4.34315C5.84344 2.84285 7.87827 2 10 2V2ZM13.36 7.65C13.2774 7.56636 13.168 7.5145 13.0509 7.50353C12.9339 7.49255 12.8167 7.52317 12.72 7.59L12.65 7.65L9 11.3L7.35 9.65L7.28 9.59C7.18371 9.51779 7.06461 9.48273 6.94456 9.49126C6.8245 9.49979 6.71155 9.55134 6.62645 9.63645C6.54134 9.72155 6.48979 9.8345 6.48126 9.95456C6.47273 10.0746 6.50779 10.1937 6.58 10.29L6.65 10.36L8.65 12.36L8.72 12.42C8.89 12.53 9.12 12.53 9.28 12.42L9.35 12.36L13.35 8.36L13.42 8.28C13.4842 8.18418 13.5133 8.06912 13.5024 7.9543C13.4914 7.83948 13.4411 7.73198 13.36 7.65V7.65Z" fill="#0000FF"/>
</svg>
