<svg width="20" height="20" viewBox="0 0 20 20" fill="none" xmlns="http://www.w3.org/2000/svg">
<path d="M16 4.5C16 3.83696 15.7366 3.20107 15.2678 2.73223C14.7989 2.26339 14.163 2 13.5 2H4.5C3.83696 2 3.20107 2.26339 2.73223 2.73223C2.26339 3.20107 2 3.83696 2 4.5V13.5C2 14.163 2.26339 14.7989 2.73223 15.2678C3.20107 15.7366 3.83696 16 4.5 16H8.6C8.44 15.68 8.3 15.35 8.2 15H4.5C4.10218 15 3.72064 14.842 3.43934 14.5607C3.15804 14.2794 3 13.8978 3 13.5V6H15V8.2C15.35 8.3 15.68 8.44 16 8.6V4.5ZM4.5 3H13.5C14.33 3 15 3.67 15 4.5V5H3V4.5C3 3.67 3.67 3 4.5 3ZM13.5 18C14.6935 18 15.8381 17.5259 16.682 16.682C17.5259 15.8381 18 14.6935 18 13.5C18 12.3065 17.5259 11.1619 16.682 10.318C15.8381 9.47411 14.6935 9 13.5 9C12.3065 9 11.1619 9.47411 10.318 10.318C9.47411 11.1619 9 12.3065 9 13.5C9 14.6935 9.47411 15.8381 10.318 16.682C11.1619 17.5259 12.3065 18 13.5 18V18ZM13 11.5C13 11.3674 13.0527 11.2402 13.1464 11.1464C13.2402 11.0527 13.3674 11 13.5 11C13.6326 11 13.7598 11.0527 13.8536 11.1464C13.9473 11.2402 14 11.3674 14 11.5V13H15C15.1326 13 15.2598 13.0527 15.3536 13.1464C15.4473 13.2402 15.5 13.3674 15.5 13.5C15.5 13.6326 15.4473 13.7598 15.3536 13.8536C15.2598 13.9473 15.1326 14 15 14H13.5C13.3674 14 13.2402 13.9473 13.1464 13.8536C13.0527 13.7598 13 13.6326 13 13.5V11.5Z" fill="black"/>
</svg>
