<svg width="24" height="24" viewBox="0 0 24 24" fill="none" xmlns="http://www.w3.org/2000/svg">
<path d="M3.11877 16.4282L2.31144 15.8381L2.31144 15.8381L3.11877 16.4282ZM4.42712 12.5728L3.42712 12.561V12.5728H4.42712ZM4.45458 10.2418L5.45458 10.2535V10.2418H4.45458ZM20.8882 16.4469L21.7071 15.8729L21.7071 15.8729L20.8882 16.4469ZM19.6291 12.5728L18.6291 12.5604V12.5728H19.6291ZM19.6566 10.3573L20.6566 10.3697V10.3573H19.6566ZM9.60379 19.8331C9.16354 19.4997 8.53632 19.5862 8.20286 20.0265C7.86939 20.4667 7.95596 21.094 8.39621 21.4274L9.60379 19.8331ZM15.6038 21.4274C16.044 21.094 16.1306 20.4667 15.7971 20.0265C15.4637 19.5862 14.8365 19.4997 14.3962 19.8331L15.6038 21.4274ZM3.9261 17.0183C4.6783 15.9892 5.42712 14.451 5.42712 12.5728H3.42712C3.42712 13.9119 2.89076 15.0455 2.31144 15.8381L3.9261 17.0183ZM5.42705 12.5846L5.45451 10.2535L3.45465 10.23L3.42719 12.561L5.42705 12.5846ZM21.7071 15.8729C21.1521 15.0811 20.6291 13.9347 20.6291 12.5728H18.6291C18.6291 14.4504 19.347 15.9903 20.0693 17.0209L21.7071 15.8729ZM20.629 12.5852L20.6565 10.3697L18.6566 10.3449L18.6292 12.5604L20.629 12.5852ZM20.6566 10.3573C20.6566 5.44696 16.8168 1.39999 12 1.39999V3.39999C15.6404 3.39999 18.6566 6.47822 18.6566 10.3573H20.6566ZM20.43 18.5272C21.2093 18.5272 21.6799 17.9621 21.8636 17.5137C22.0489 17.0612 22.0871 16.4151 21.7071 15.8729L20.0693 17.0209C20.0152 16.9436 20.0024 16.8733 20.0004 16.8365C19.9984 16.8012 20.0044 16.7761 20.0128 16.7556C20.0207 16.7365 20.0439 16.6895 20.1059 16.6389C20.175 16.5825 20.2889 16.5272 20.43 16.5272V18.5272ZM5.45458 10.2418C5.45458 6.4265 8.42103 3.39999 12 3.39999V1.39999C7.24454 1.39999 3.45458 5.39525 3.45458 10.2418H5.45458ZM3.57109 16.5272C3.71538 16.5272 3.83064 16.5847 3.89923 16.6417C3.96044 16.6926 3.98209 16.7388 3.98883 16.7557C3.99616 16.7742 4.00179 16.7976 3.99949 16.8321C3.99709 16.8681 3.98349 16.9398 3.9261 17.0183L2.31144 15.8381C1.91422 16.3815 1.94905 17.0383 2.13011 17.4941C2.30917 17.9449 2.77897 18.5272 3.57109 18.5272V16.5272ZM20.43 16.5272H3.57109V18.5272H20.43V16.5272ZM12 20.6C11.0577 20.6 10.22 20.2999 9.60379 19.8331L8.39621 21.4274C9.37223 22.1667 10.6373 22.6 12 22.6V20.6ZM14.3962 19.8331C13.78 20.2999 12.9423 20.6 12 20.6V22.6C13.3627 22.6 14.6278 22.1667 15.6038 21.4274L14.3962 19.8331Z" stroke-width="1.5" fill="grey"/>
</svg>
