<svg width="24" height="22" viewBox="0 0 24 22" fill="none" xmlns="http://www.w3.org/2000/svg">
<path d="M11.495 1.7139C11.7016 1.29536 12.2984 1.29536 12.505 1.7139L15.179 7.13203C15.261 7.29823 15.4196 7.41343 15.603 7.44008L21.5822 8.30892C22.0441 8.37604 22.2286 8.94366 21.8943 9.26945L17.5677 13.4869C17.435 13.6162 17.3744 13.8026 17.4058 13.9853L18.4271 19.9404C18.506 20.4004 18.0232 20.7513 17.6101 20.5341L12.262 17.7224C12.098 17.6362 11.902 17.6362 11.7379 17.7224L6.38994 20.5341C5.97681 20.7513 5.49396 20.4004 5.57286 19.9404L6.59424 13.9853C6.62557 13.8026 6.56501 13.6162 6.43229 13.4869L2.10566 9.26945C1.77143 8.94366 1.95586 8.37604 2.41775 8.30892L8.39701 7.44008C8.58043 7.41343 8.73898 7.29823 8.82101 7.13203L11.495 1.7139Z" fill="#0000FF" stroke="#0000FF" stroke-width="2" stroke-linejoin="round"/>
</svg>
