<svg width="24" height="24" viewBox="0 0 24 24" fill="none" xmlns="http://www.w3.org/2000/svg">
<path d="M16.0807 10.1356C15.7138 9.72285 15.0818 9.68567 14.669 10.0526C14.2562 10.4195 14.219 11.0516 14.5859 11.4644L16.0807 10.1356ZM18 13.8L18.7474 14.4644C19.0842 14.0855 19.0842 13.5145 18.7474 13.1356L18 13.8ZM14.5859 16.1356C14.219 16.5484 14.2562 17.1805 14.669 17.5474C15.0818 17.9143 15.7138 17.8771 16.0807 17.4644L14.5859 16.1356ZM7.2 12.8C6.64771 12.8 6.2 13.2477 6.2 13.8C6.2 14.3523 6.64771 14.8 7.2 14.8V12.8ZM7.2 5.60058C6.64771 5.60058 6.2 6.04829 6.2 6.60058C6.2 7.15286 6.64771 7.60058 7.2 7.60058V5.60058ZM17.2 7.60058C17.7523 7.60058 18.2 7.15286 18.2 6.60058C18.2 6.04829 17.7523 5.60058 17.2 5.60058V7.60058ZM1.4 5.99999V18H3.4V5.99999H1.4ZM6 22.6H18V20.6H6V22.6ZM22.6 18V5.99999H20.6V18H22.6ZM18 1.39999H6V3.39999H18V1.39999ZM22.6 5.99999C22.6 3.45948 20.5405 1.39999 18 1.39999V3.39999C19.4359 3.39999 20.6 4.56405 20.6 5.99999H22.6ZM18 22.6C20.5405 22.6 22.6 20.5405 22.6 18H20.6C20.6 19.4359 19.4359 20.6 18 20.6V22.6ZM1.4 18C1.4 20.5405 3.45949 22.6 6 22.6V20.6C4.56406 20.6 3.4 19.4359 3.4 18H1.4ZM3.4 5.99999C3.4 4.56405 4.56406 3.39999 6 3.39999V1.39999C3.45949 1.39999 1.4 3.45948 1.4 5.99999H3.4ZM14.5859 11.4644L17.2526 14.4644L18.7474 13.1356L16.0807 10.1356L14.5859 11.4644ZM17.2526 13.1356L14.5859 16.1356L16.0807 17.4644L18.7474 14.4644L17.2526 13.1356ZM18 12.8H7.2V14.8H18V12.8ZM7.2 7.60058H17.2V5.60058H7.2V7.60058Z" stroke-width="1.5" fill="grey"/>
</svg>
