<svg width="18" height="18" viewBox="0 0 18 18" fill="none" xmlns="http://www.w3.org/2000/svg">
<path d="M15.705 8.09999L14.4 6.79589V3.59999C14.4 3.10499 13.995 2.69999 13.5 2.69999H12.6C12.105 2.69999 11.7 3.10499 11.7 3.59999V4.09769L9.89999 2.29949C9.65429 2.06729 9.42929 1.79999 8.99999 1.79999C8.57069 1.79999 8.34569 2.06729 8.09999 2.29949L2.29499 8.09999C2.01419 8.39249 1.79999 8.60579 1.79999 8.99999C1.79999 9.50669 2.18879 9.89999 2.69999 9.89999H3.59999V15.3C3.59999 15.795 4.00499 16.2 4.49999 16.2H6.29999C6.79704 16.2 7.19999 15.797 7.19999 15.3V11.7C7.19999 11.205 7.60499 10.8 8.09999 10.8H9.89999C10.395 10.8 10.8 11.205 10.8 11.7V15.3C10.8 15.797 10.7529 16.2 11.25 16.2H13.5C13.995 16.2 14.4 15.795 14.4 15.3V9.89999H15.3C15.8112 9.89999 16.2 9.50669 16.2 8.99999C16.2 8.60579 15.9858 8.39249 15.705 8.09999Z" stroke="#000000" stroke-width="1.5" stroke-linejoin="round"/>
</svg>
