<svg width="24" height="24" viewBox="0 0 24 24" fill="none" xmlns="http://www.w3.org/2000/svg">
<path d="M2.82889 6.69745C2.55135 7.17493 2.71342 7.787 3.1909 8.06455C3.66838 8.34209 4.28045 8.18002 4.558 7.70254L2.82889 6.69745ZM6.62327 9.39999C7.17556 9.39999 7.62327 8.95228 7.62327 8.39999C7.62327 7.84771 7.17556 7.39999 6.62327 7.39999V9.39999ZM1.8 8.39999H0.799999C0.799999 8.95228 1.24771 9.39999 1.8 9.39999L1.8 8.39999ZM2.8 3.59999C2.8 3.04771 2.35228 2.59999 1.8 2.59999C1.24771 2.59999 0.799999 3.04771 0.799999 3.59999H2.8ZM20.0685 8.77677C20.2766 9.28835 20.86 9.53439 21.3716 9.3263C21.8832 9.11821 22.1292 8.5348 21.9211 8.02322L20.0685 8.77677ZM21.1711 17.3025C21.4487 16.8251 21.2866 16.213 20.8091 15.9354C20.3316 15.6579 19.7195 15.82 19.442 16.2975L21.1711 17.3025ZM11.9505 21.6L11.9505 20.6L11.9505 21.6ZM17.3767 14.6C16.8244 14.6 16.3767 15.0477 16.3767 15.6C16.3767 16.1523 16.8244 16.6 17.3767 16.6V14.6ZM22.2 15.6H23.2C23.2 15.0477 22.7523 14.6 22.2 14.6V15.6ZM21.2 20.4C21.2 20.9523 21.6477 21.4 22.2 21.4C22.7523 21.4 23.2 20.9523 23.2 20.4H21.2ZM3.9315 15.2232C3.72342 14.7116 3.14001 14.4656 2.62842 14.6737C2.11684 14.8818 1.87081 15.4652 2.07889 15.9768L3.9315 15.2232ZM4.558 7.70254C6.05345 5.12982 8.8479 3.39999 12.0495 3.39999V1.39999C8.10984 1.39999 4.6693 3.53128 2.82889 6.69745L4.558 7.70254ZM6.62327 7.39999H1.8V9.39999H6.62327V7.39999ZM2.8 8.39999V3.59999H0.799999V8.39999H2.8ZM12.0495 3.39999C15.6795 3.39999 18.7863 5.62453 20.0685 8.77677L21.9211 8.02322C20.3412 4.13907 16.5162 1.39999 12.0495 1.39999V3.39999ZM19.442 16.2975C17.9465 18.8702 15.1521 20.6 11.9505 20.6L11.9505 22.6C15.8902 22.6 19.3307 20.4687 21.1711 17.3025L19.442 16.2975ZM17.3767 16.6H22.2V14.6H17.3767V16.6ZM21.2 15.6V20.4H23.2V15.6H21.2ZM11.9505 20.6C8.32054 20.6 5.21368 18.3755 3.9315 15.2232L2.07889 15.9768C3.65878 19.8609 7.48377 22.6 11.9505 22.6L11.9505 20.6Z" stroke-width="1.5" fill="grey"/>
</svg>
